<?xml version="1.0" encoding="UTF-8"?><svg id="a" xmlns="http://www.w3.org/2000/svg" viewBox="0 0 786.25 869.6"><defs><style>.b{fill:#231f20;}</style></defs><path class="b" d="M237.13,137.6c30.4-6.4,78.4-11.2,127.2-11.2,69.6,0,114.4,12,148,39.2,28,20.8,44.8,52.8,44.8,95.2,0,52-34.4,97.6-91.2,118.4v1.6c51.2,12.8,111.2,55.2,111.2,135.2,0,46.4-18.4,81.6-45.6,108-37.6,34.4-98.4,50.4-186.4,50.4-48,0-84.8-3.2-108-6.4V137.6Zm69.6,220.8h63.2c73.6,0,116.8-38.4,116.8-90.4,0-63.2-48-88-118.4-88-32,0-50.4,2.4-61.6,4.8v173.6Zm0,258.4c13.6,2.4,33.6,3.2,58.4,3.2,72,0,138.4-26.4,138.4-104.8,0-73.6-63.2-104-139.2-104h-57.6v205.6Z"/></svg>