<?xml version="1.0" encoding="UTF-8"?><svg id="a" xmlns="http://www.w3.org/2000/svg" viewBox="0 0 786.25 869.6"><defs><style>.b{fill:#231f20;}</style></defs><path class="b" d="M605.93,645.6c-31.2,11.2-92.8,29.6-165.6,29.6-81.6,0-148.8-20.8-201.6-71.2-46.4-44.8-75.2-116.8-75.2-200.8,.8-160.8,111.2-278.4,292-278.4,62.4,0,111.2,13.6,134.4,24.8l-16.8,56.8c-28.8-12.8-64.8-23.2-119.2-23.2-131.2,0-216.8,81.6-216.8,216.8s82.4,217.6,208,217.6c45.6,0,76.8-6.4,92.8-14.4v-160.8h-109.6v-56h177.6v259.2Z"/></svg>