<?xml version="1.0" encoding="UTF-8"?><svg id="a" xmlns="http://www.w3.org/2000/svg" viewBox="0 0 786.25 869.6"><defs><style>.b{fill:#231f20;}</style></defs><path class="b" d="M586.73,432.8c-4-75.2-8.8-165.6-8-232.8h-2.4c-18.4,63.2-40.8,130.4-68,204.8l-95.2,261.6h-52.8l-87.2-256.8c-25.6-76-47.2-145.6-62.4-209.6h-1.6c-1.6,67.2-5.6,157.6-10.4,238.4l-14.4,231.2H117.93L155.53,130.4h88.8l92,260.8c22.4,66.4,40.8,125.6,54.4,181.6h2.4c13.6-54.4,32.8-113.6,56.8-181.6l96-260.8h88.8l33.6,539.2h-68l-13.6-236.8Z"/></svg>