<?xml version="1.0" encoding="UTF-8"?><svg id="a" xmlns="http://www.w3.org/2000/svg" width="786.25" height="869.6" viewBox="0 0 786.25 869.6"><defs><style>.b{fill:#231f20;}</style></defs><path class="b" d="M241.13,136.8c33.6-5.6,77.6-10.4,133.6-10.4,68.8,0,119.2,16,151.2,44.8,29.6,25.6,47.2,64.8,47.2,112.8s-14.4,87.2-41.6,115.2c-36.8,39.2-96.8,59.2-164.8,59.2-20.8,0-40-.8-56-4.8v216h-69.6V136.8Zm69.6,260c15.2,4,34.4,5.6,57.6,5.6,84,0,135.2-40.8,135.2-115.2s-50.4-105.6-127.2-105.6c-30.4,0-53.6,2.4-65.6,5.6v209.6Z"/></svg>