<?xml version="1.0" encoding="UTF-8"?><svg id="a" xmlns="http://www.w3.org/2000/svg" width="786.25" height="869.6" viewBox="0 0 786.25 869.6"><defs><style>.b{fill:#231f20;}</style></defs><path class="b" d="M238.73,137.6c35.2-7.2,85.6-11.2,133.6-11.2,74.4,0,122.4,13.6,156,44,27.2,24,42.4,60.8,42.4,102.4,0,71.2-44.8,118.4-101.6,137.6v2.4c41.6,14.4,66.4,52.8,79.2,108.8,17.6,75.2,30.4,127.2,41.6,148h-72c-8.8-15.2-20.8-61.6-36-128.8-16-74.4-44.8-102.4-108-104.8h-65.6v233.6h-69.6V137.6Zm69.6,245.6h71.2c74.4,0,121.6-40.8,121.6-102.4,0-69.6-50.4-100-124-100.8-33.6,0-57.6,3.2-68.8,6.4v196.8Z"/></svg>