<?xml version="1.0" encoding="UTF-8"?><svg id="a" xmlns="http://www.w3.org/2000/svg" width="786.25" height="869.6" viewBox="0 0 786.25 869.6"><defs><style>.b{fill:#231f20;}</style></defs><path class="b" d="M247.13,584.8c31.2,19.2,76.8,35.2,124.8,35.2,71.2,0,112.8-37.6,112.8-92,0-50.4-28.8-79.2-101.6-107.2-88-31.2-142.4-76.8-142.4-152.8,0-84,69.6-146.4,174.4-146.4,55.2,0,95.2,12.8,119.2,26.4l-19.2,56.8c-17.6-9.6-53.6-25.6-102.4-25.6-73.6,0-101.6,44-101.6,80.8,0,50.4,32.8,75.2,107.2,104,91.2,35.2,137.6,79.2,137.6,158.4,0,83.2-61.6,155.2-188.8,155.2-52,0-108.8-15.2-137.6-34.4l17.6-58.4Z"/></svg>