<?xml version="1.0" encoding="UTF-8"?><svg id="a" xmlns="http://www.w3.org/2000/svg" viewBox="0 0 409.6 643.6"><defs><style>.b{fill:#231f20;}</style></defs><path class="b" d="M408.8,618c-25.6,12.8-76.8,25.6-142.4,25.6C114.4,643.6,0,547.6,0,370.8S114.4,87.6,281.6,87.6c67.2,0,109.6,14.4,128,24l-16.8,56.8c-26.4-12.8-64-22.4-108.8-22.4-126.4,0-210.4,80.8-210.4,222.4,0,132,76,216.8,207.2,216.8,42.4,0,85.6-8.8,113.6-22.4l14.4,55.2ZM236.8,91.2L152.8,0h59.2l51.2,56h1.6L315.2,0h57.6l-82.4,91.2h-53.6Z"/></svg>